<svg id="Layer_1" data-name="Layer 1" xmlns="http://www.w3.org/2000/svg" viewBox="0 0 3019.25 532.65"><defs><style>.cls-1{fill:#fff;}</style></defs><title>coffee-signs</title><path class="cls-1" d="M319.52,216.57c2.82-.3,5.66-1,8.47-.87,22.08.75,44,3.08,65.06,10A47,47,0,0,1,407.16,233c8.45,6.62,8.45,16.19-.37,22.19a81.27,81.27,0,0,1-20.46,9.66c-21.13,6.87-43.15,8.69-65.16,9.75-37.08,1.8-74.16,1.82-111-3.44-24.11-3.44-47.81-8.66-69.91-19.42-5.59-2.72-11.39-5.48-14.9-13.63,11.33,9.54,23.86,9.61,35.89,12.55-1.16-3-3.49-6.23-2.69-7.71a12.86,12.86,0,0,1,7.32-5.89c12.16-3,24.39-6.28,36.79-7.54a540,540,0,0,1,135.54,3.51c11.93,1.8,23.61,5.35,35.33,8.38a23.18,23.18,0,0,1,7.63,3.89c6.5,4.72,9.73,4.6,18-2.22-4.5-2.38-8.28-5.22-12.52-6.45-18.15-5.26-36.45-10-54.69-15l-12.67-3.48Z"/><path class="cls-1" d="M228.76,84.85C245.41,95.06,264,96,282.24,93.24c19-2.92,37.6-8.79,56.41-13.19,13.54-3.16,27.21-4.85,41-1.72,31,7,31.76,34.48,22.5,51.74-10.09,18.83-27.65,25-47.51,26-22.42,1.16-43.47-5.72-64.72-11.63-25.36-7-50.78-14-76.46-19.63-16.55-3.63-33.63-4-50.11,1.71-11,3.81-19.41,10.76-23.92,21.76-2.66,6.48-1.56,12.41,3,17.85,9.92,11.77,23,15.09,37.37,12.86,16.66-2.59,33-7.21,49.68-9.66,18.51-2.72,34.28,3,45,19.23,6.91,10.41,4.1,21.33-6.35,26.15-.12-.36-.44-.91-.31-1.05,11.55-13.21,2.35-24.75-10.3-31.5-11.09-5.92-22.76-4.58-34.37-1.83-13.4,3.18-26.66,7.1-40.18,9.67-15.93,3-31.14.75-44.64-9.2-14.17-10.45-18.21-26.38-10.14-42.12,9.32-18.18,25.15-27.24,44.63-30.6,23.68-4.1,46.88-.37,69.72,5.58,25.29,6.59,50.27,14.32,75.58,20.8,15,3.83,30.35,6,45.92,3.12,9.83-1.84,17.53-6.75,22.65-15.55,7.31-12.55,3.24-24.66-10.85-27.73a95.45,95.45,0,0,0-30.52-1.66c-14.88,1.65-29.49,5.66-44.28,8.29-21,3.74-41.49,1-61.22-6.73-4.42-1.75-8.14-5.23-12.18-7.9Z"/><path class="cls-1" d="M157.59,371.58c-11.89-23.69-11.31-49.09-15.52-73.5-2.32-13.48-5.59-26.56-12.45-38.56-1.49-2.61-2.36-5.59-3.51-8.4l1.2-1.46c2.89,1.82,6.81,3,8.49,5.6,5.39,8.4,11.6,16.83,14.5,26.18a385.86,385.86,0,0,1,12,51.63c5.56,34.06,25,55.06,57.6,64.56,12,3.51,24.23,6.53,36.35,9.78,1.75.47,3.49,1,6.82,1.93-18.28,3.78-34.93,4.17-51.69,1-2.44-.47-5.62-.68-7.55.48-6.67,4-7,10.95.06,13.87A190.83,190.83,0,0,0,239.51,436c27.76,5.5,55.77,4.72,83.59-.22,16.31-2.9,18.23-4.77,24.7-19.69,5.61,2.31,5.14,6.9,3.83,11.18-2.37,7.73-7.91,12.8-15.09,16.29-15.3,7.43-31.8,9.86-48.44,11.31-26.08,2.27-52,.8-76.81-8a51.41,51.41,0,0,1-18.08-11.25c-10.54-10.17-9.12-20.32,3.25-28.92-1.48-.84-2.72-1.66-4.05-2.28a75,75,0,0,1-29.36-24c-1.23-1.67-3.81-3.57-5.62-3.43-30.53,2.37-53.32-11.28-71.05-34.64-12.27-16.18-17.1-34.56-12.72-54.79,2-9.05,6-16.77,15.54-19.87,10.39-3.37,18.92.68,25.46,8.23,6.17,7.11,11.34,15.12,16.51,23,1.76,2.69,2.18,6.25,3.21,9.41l-1.94,1.27-10.36-9.91c-5.77-5.55-11.1-11.68-17.44-16.5-7-5.31-12-3.29-15.2,5-4.14,10.65-1.44,20.82,3,30.49,11,23.69,30.29,38.52,53.44,49.05,2.81,1.28,5.71,2.36,8.58,3.47A17.16,17.16,0,0,0,157.59,371.58Z"/><path class="cls-1" d="M336,403c14.8-8.68,27.06-20,34.29-35.47,5.06-10.83,8.23-22.59,11.69-34.1,5.71-19,8.27-38.9,18.34-56.5C406,267,411,261.31,418.16,259c-2,3.41-3.47,6.25-5.3,8.84C402,283.22,396.7,300.64,393.13,319c-3.05,15.65-6.12,31.57-11.83,46.35C373.48,385.6,357.84,398.5,336,403Z"/><path class="cls-1" d="M597.21,423.6H560.66c-4.5,0-6.6-1.5-6.6-4.2a12.18,12.18,0,0,1,1.5-5.39l95.58-190.25c5.69-11.69,9-15.28,13.78-15.28s7.79,3.59,13.78,15.28L774.88,414a12.25,12.25,0,0,1,1.49,5.09c0,3-2.4,4.5-6.89,4.5H731.13c-7.49,0-10.48-2.1-14.08-9.59L664,305,611.59,414C608,421.5,604.7,423.6,597.21,423.6Z"/><path class="cls-1" d="M1064.87,213.87c5.69,0,7.79,2.1,7.79,7.79V415.81c0,5.09-2.1,7.79-7.79,7.79h-36.25c-5.39,0-8.09-2.7-8.09-7.79V266.3c0-3.29-.9-4.49-4.5-4.49H969.9c-3.3,0-4.49,1.2-4.49,4.49V415.81c0,5.09-2.1,7.79-7.8,7.79H921.36c-5.39,0-8.09-2.7-8.09-7.79V266.3c0-3.29-.9-4.49-4.49-4.49H862.64c-3.6,0-4.5,1.2-4.5,4.49V415.81c0,5.69-2.39,7.79-8.09,7.79H813.8c-5.09,0-7.79-2.7-7.79-7.79V221.66c0-5.69,2.7-7.79,7.79-7.79Z"/><path class="cls-1" d="M1145.78,423.6h-36.55c-4.5,0-6.6-1.5-6.6-4.2a12.18,12.18,0,0,1,1.5-5.39l95.58-190.25c5.69-11.69,9-15.28,13.78-15.28s7.79,3.59,13.78,15.28L1323.45,414a12.25,12.25,0,0,1,1.49,5.09c0,3-2.4,4.5-6.89,4.5H1279.7c-7.49,0-10.48-2.1-14.08-9.59l-53-109.06L1160.16,414C1156.56,421.5,1153.27,423.6,1145.78,423.6Z"/><path class="cls-1" d="M1550.1,419.4c0,2.7-2.7,4.2-6.29,4.2h-45.24c-7.49,0-9.89-1.5-14.38-8.69L1447,357.38l-37.75,58.73c-3.9,6.29-6.3,7.49-13.19,7.49h-43.74c-4.49,0-6.59-1.5-6.59-4.2a8.72,8.72,0,0,1,1.8-4.49l65.61-96.77-64.11-95.58a8.72,8.72,0,0,1-1.8-4.49c0-2.7,2.69-4.2,6.59-4.2h45.24c7.49,0,9.89,1.5,14.38,8.69l35.06,56,36.55-57.23c3.89-6.29,6.59-7.49,13.48-7.49h43.74c4.2,0,6.29,1.2,6.29,3.9a12,12,0,0,1-1.8,4.79l-64.11,95,65.62,97.37A8.78,8.78,0,0,1,1550.1,419.4Z"/><path class="cls-1" d="M1836.54,359.18c2.09,0,3.29,1.2,5.39,3.6L1859,387.34a9.56,9.56,0,0,1,1.8,5.1c0,1.8-1.49,4.19-4.49,6.89a121.62,121.62,0,0,1-78.5,28.16c-62.62.9-112.65-46.74-111.45-107.55-.9-62.62,48.83-110.86,113.85-110a119.42,119.42,0,0,1,77.3,28.16c2.4,2.1,3.6,3.9,3.6,5.7a9.42,9.42,0,0,1-2.11,5.38l-17.37,24.57c-1.8,2.7-3.59,3.9-5.69,3.9a11,11,0,0,1-6-2.4c-16.18-11.68-33-17.38-50-17.38-34.45,0-59.62,24.87-59.62,61.12,0,35.06,25.17,60.53,59.62,60.53,18.28,0,35.36-6,50.63-17.68C1832.94,360.08,1835,359.18,1836.54,359.18Z"/><path class="cls-1" d="M1979.21,231.55V214.17c0-5.69,2.7-7.79,7.8-7.79h33.85c5.69,0,8.09,2.1,8.09,7.79v17.38c56.63,7.19,95,41.64,95,87.19s-38.06,79.69-95,87.48V423.3c0,5.69-2.4,7.79-8.09,7.79H1987c-5.1,0-7.8-2.1-7.8-7.79V406.22c-56.62-7.19-94.67-42-94.67-86.88C1884.54,273.79,1922.59,238.74,1979.21,231.55Zm0,128.83v-83c-25.46,5.69-40.74,21.27-40.74,41.64C1938.47,339.71,1953.15,354.69,1979.21,360.38Zm49.74-83v82.69c25.17-5.69,41-21,41-41.05C2070,298.66,2054.41,283.38,2029,277.39Z"/><path class="cls-1" d="M2176.39,423.6c-5.09,0-7.78-2.7-7.78-7.79V221.66c0-5.69,2.69-7.79,7.78-7.79H2304c5.39,0,8.08,2.7,8.08,7.79V254c0,5.69-2.39,7.79-8.08,7.79h-78.8c-3.6,0-4.49,1.2-4.49,4.49v30.86c0,3.6.89,4.5,4.49,4.5h68.61c5.69,0,8.09,2.39,8.09,8.09v32.06c0,5.69-2.4,7.79-8.09,7.79h-68.61c-3.6,0-4.49,1.19-4.49,4.49v61.72c0,5.69-2.4,7.79-8.09,7.79Z"/><path class="cls-1" d="M2364.8,423.6c-5.09,0-7.79-2.7-7.79-7.79V221.66c0-5.69,2.7-7.79,7.79-7.79h127.63c5.39,0,8.09,2.7,8.09,7.79V254c0,5.69-2.4,7.79-8.09,7.79h-78.8c-3.59,0-4.49,1.2-4.49,4.49v30.86c0,3.6.9,4.5,4.49,4.5h68.61c5.7,0,8.09,2.39,8.09,8.09v32.06c0,5.69-2.39,7.79-8.09,7.79h-68.61c-3.59,0-4.49,1.19-4.49,4.49v61.72c0,5.69-2.4,7.79-8.09,7.79Z"/><path class="cls-1" d="M2678.82,334.32c0,5.09-2.1,7.78-7.79,7.78h-85.09c8.39,23.68,30,37.46,57.53,37.46,18.27,0,35.35-6,50.63-17.68,2.39-1.8,4.49-2.7,6-2.7,2.1,0,3.3,1.2,5.4,3.6l17.07,24.56a9.56,9.56,0,0,1,1.8,5.1c0,1.8-1.5,4.19-4.49,6.89a121.64,121.64,0,0,1-78.5,28.16c-62.62.9-112.66-46.74-111.46-107.55-.89-62.62,48.84-110.86,113.85-110a119.4,119.4,0,0,1,77.3,28.16c2.4,2.1,3.6,3.9,3.6,5.7a9.47,9.47,0,0,1-2.1,5.38l-17.38,24.57c-1.79,2.7-3.59,3.9-5.69,3.9a11,11,0,0,1-6-2.4c-16.18-11.68-33-17.38-50-17.38-27.27,0-48.24,13.49-56.93,36.26H2671c5.69,0,7.79,2.39,7.79,8.09Z"/><path class="cls-1" d="M2901.17,334.32c0,5.09-2.1,7.78-7.79,7.78h-85.09c8.39,23.68,30,37.46,57.52,37.46,18.28,0,35.36-6,50.64-17.68,2.39-1.8,4.49-2.7,6-2.7,2.1,0,3.29,1.2,5.39,3.6l17.08,24.56a9.56,9.56,0,0,1,1.8,5.1c0,1.8-1.5,4.19-4.49,6.89a121.64,121.64,0,0,1-78.5,28.16c-62.62.9-112.66-46.74-111.46-107.55-.9-62.62,48.84-110.86,113.85-110a119.4,119.4,0,0,1,77.3,28.16c2.4,2.1,3.6,3.9,3.6,5.7a9.47,9.47,0,0,1-2.1,5.38l-17.38,24.57c-1.8,2.7-3.59,3.9-5.69,3.9a11,11,0,0,1-6-2.4c-16.18-11.68-33-17.38-50-17.38-27.26,0-48.23,13.49-56.92,36.26h84.49c5.69,0,7.79,2.39,7.79,8.09Z"/></svg>