<svg id="Layer_1" data-name="Layer 1" xmlns="http://www.w3.org/2000/svg" viewBox="0 0 428 236.13"><defs><style>.cls-1{fill:#3cb186;}.cls-2{fill:#ed334e;}.cls-3{fill:#34b684;}</style></defs><title>ilec</title><polygon class="cls-1" points="52.05 87.81 52.05 78.49 33.17 83.15 14.28 87.81 33.17 92.47 52.05 97.13 52.05 87.81"/><polygon class="cls-1" points="124.51 87.81 124.51 97.13 143.39 92.47 162.28 87.81 143.39 83.15 124.51 78.49 124.51 87.81"/><polygon class="cls-1" points="62.66 113.43 56.07 106.84 46.01 123.49 35.96 140.13 52.61 130.08 69.25 120.02 62.66 113.43"/><polygon class="cls-1" points="113.9 62.19 120.49 68.78 130.55 52.14 140.6 35.49 123.95 45.54 107.31 55.6 113.9 62.19"/><polygon class="cls-2" points="89.14 124.05 75.7 124.05 82.42 171.5 89.14 218.95 95.85 171.5 102.57 124.05 89.14 124.05"/><polygon class="cls-1" points="88.06 51.59 97.38 51.59 92.72 32.71 88.06 13.82 83.4 32.71 78.74 51.59 88.06 51.59"/><polygon class="cls-1" points="113.9 113.43 107.31 120.02 123.95 130.08 140.6 140.13 130.55 123.49 120.49 106.84 113.9 113.43"/><polygon class="cls-1" points="62.66 62.19 69.25 55.6 52.61 45.54 35.96 35.49 46.01 52.14 56.07 68.78 62.66 62.19"/><circle class="cls-2" cx="88.28" cy="87.81" r="26.57"/><path class="cls-1" d="M174.07,82.24h23.52v90.32H174.07Z"/><path class="cls-1" d="M215.43,82.24H239v71.1h29v19.22h-52.5Z"/><path class="cls-1" d="M281.59,82.24H335.1v19.23h-30V116.9H333.2v18.47H305.12v18h31.12v19.22H281.59Z"/><path class="cls-1" d="M388.49,109.69q0-7.45-1.46-10.37a5.12,5.12,0,0,0-5-2.91q-5.19,0-6.58,6t-1.39,25q0,19,1.39,25t6.58,6q4.17,0,5.62-4.62t1.46-17.52h22.77V143a42.85,42.85,0,0,1-2.47,15.56,20.69,20.69,0,0,1-6.89,9.55,28.43,28.43,0,0,1-9.36,4.56A43.1,43.1,0,0,1,382,174q-10,0-16.2-2.41a19.61,19.61,0,0,1-9.8-8.22,38,38,0,0,1-4.93-14.17,143.15,143.15,0,0,1-1.33-21.76q0-26.06,7-36.49T382,80.47q29.22,0,29.22,28.59v5.69H388.49Z"/><path class="cls-3" d="M276.77,191a3,3,0,0,0-1.2-2,3.78,3.78,0,0,0-2.28-.68,3.63,3.63,0,0,0-3.14,1.46,5.84,5.84,0,0,0-1.06,3.57,6.24,6.24,0,0,0,1.05,3.74,3.66,3.66,0,0,0,3.17,1.46,3.3,3.3,0,0,0,2.53-1A4,4,0,0,0,276.9,195h1.65a5.61,5.61,0,0,1-1.63,3.66,5.27,5.27,0,0,1-3.75,1.29,5.18,5.18,0,0,1-4.26-1.8,7.12,7.12,0,0,1-1.48-4.65,7,7,0,0,1,1.56-4.69,5.36,5.36,0,0,1,4.32-1.85,5.62,5.62,0,0,1,3.44,1.05,4.32,4.32,0,0,1,1.68,3Z"/><path class="cls-3" d="M280.91,195.2a5,5,0,0,1,1.15-3.39,4.56,4.56,0,0,1,6.44,0,5,5,0,0,1,1.15,3.39,4.93,4.93,0,0,1-1.15,3.36,4.59,4.59,0,0,1-6.44,0A4.93,4.93,0,0,1,280.91,195.2Zm2.37-2.5a4.29,4.29,0,0,0,0,5,2.67,2.67,0,0,0,4,0,4.29,4.29,0,0,0,0-5,2.65,2.65,0,0,0-4,0Z"/><path class="cls-3" d="M292.43,190.69h1.39V192h0a3.27,3.27,0,0,1,2.9-1.54,2.3,2.3,0,0,1,2.47,1.54,3.13,3.13,0,0,1,2.82-1.54c2,0,3,.88,3,2.61v6.6h-1.48v-5.9a2.59,2.59,0,0,0-.36-1.48,1.59,1.59,0,0,0-1.38-.52,2.32,2.32,0,0,0-1.72.63,2.23,2.23,0,0,0-.63,1.67v5.6H298v-5.9a2.51,2.51,0,0,0-.37-1.48,1.5,1.5,0,0,0-1.31-.52,2.13,2.13,0,0,0-1.78.79,2.51,2.51,0,0,0-.62,1.51v5.6h-1.48Z"/><path class="cls-3" d="M316,196.83a3.61,3.61,0,0,1-1.3,2.27,4,4,0,0,1-2.54.78A3.92,3.92,0,0,1,309,198.6a5.41,5.41,0,0,1-1.16-3.44,4.83,4.83,0,0,1,1.19-3.35,3.93,3.93,0,0,1,3-1.33,4,4,0,0,1,1.65.34,3.42,3.42,0,0,1,1.19.85,4.37,4.37,0,0,1,.74,1.22,5.56,5.56,0,0,1,.41,1.38,6.25,6.25,0,0,1,.08,1.36h-6.73a3,3,0,0,0,.68,2.11,2.59,2.59,0,0,0,2.12.85,2.1,2.1,0,0,0,2.33-1.76Zm-1.43-2.5a2.72,2.72,0,0,0-.79-1.81,2.6,2.6,0,0,0-3.61,0,2.79,2.79,0,0,0-.76,1.81Z"/><path class="cls-3" d="M326.62,190.69h1.8V192h-1.8v5.58q0,.53.21.66a1.81,1.81,0,0,0,.91.14h.68v1.31h-1.13a2.67,2.67,0,0,1-1.67-.39,2,2,0,0,1-.47-1.58V192h-1.54v-1.31h1.54V188h1.47Z"/><path class="cls-3" d="M330.61,195.2a5,5,0,0,1,1.15-3.39,4.55,4.55,0,0,1,6.43,0,5,5,0,0,1,1.15,3.39,4.88,4.88,0,0,1-1.15,3.36,4.58,4.58,0,0,1-6.43,0A4.88,4.88,0,0,1,330.61,195.2Zm2.36-2.5a4.29,4.29,0,0,0,0,5,2.67,2.67,0,0,0,4,0,4.29,4.29,0,0,0,0-5,2.65,2.65,0,0,0-4,0Z"/><path class="cls-3" d="M354.11,193.58a2.05,2.05,0,0,0-2.23-1.79,2.39,2.39,0,0,0-2.14,1,4.45,4.45,0,0,0-.66,2.52,4.06,4.06,0,0,0,.65,2.34,2.51,2.51,0,0,0,4.45-1.24h1.51a4.08,4.08,0,0,1-1.25,2.58,4.54,4.54,0,0,1-5.83-.34,4.87,4.87,0,0,1-1.09-3.34,5.34,5.34,0,0,1,1.09-3.47,3.82,3.82,0,0,1,3.15-1.35,4.37,4.37,0,0,1,2.66.78,3.12,3.12,0,0,1,1.22,2.32Z"/><path class="cls-3" d="M358.39,187.27h1.47V192h0a2.13,2.13,0,0,1,1.12-1.15,3.89,3.89,0,0,1,1.71-.39,2.93,2.93,0,0,1,2.39.87,3.71,3.71,0,0,1,.71,2.42v5.92h-1.48V193.6a1.78,1.78,0,0,0-.48-1.32,1.81,1.81,0,0,0-1.34-.49,2.53,2.53,0,0,0-2,.77,3,3,0,0,0-.68,2.05v5.08h-1.47Z"/><path class="cls-3" d="M377.07,199.65a2.11,2.11,0,0,1-1.06.23c-.84,0-1.25-.46-1.25-1.38a3.92,3.92,0,0,1-3.17,1.38,3.51,3.51,0,0,1-2.15-.61,2.21,2.21,0,0,1-.82-1.9,2.92,2.92,0,0,1,.24-1.24,1.88,1.88,0,0,1,.72-.81,4.17,4.17,0,0,1,.94-.44,8.79,8.79,0,0,1,1.14-.27c.22-.05.48-.09.78-.14l.73-.11a4.79,4.79,0,0,0,.6-.11,1.49,1.49,0,0,0,.5-.19,1.18,1.18,0,0,0,.29-.3.89.89,0,0,0,.13-.47q0-1.5-2-1.5c-1.43,0-2.18.57-2.24,1.7H369a2.74,2.74,0,0,1,1.12-2.28,4.62,4.62,0,0,1,2.69-.73c2.25,0,3.38.83,3.38,2.48v4.62a2.81,2.81,0,0,0,.07.81c0,.13.18.2.4.2a1.74,1.74,0,0,0,.45-.09Zm-2.4-4.61a2.66,2.66,0,0,1-1.17.4c-.54.1-1.05.16-1.52.2a2.46,2.46,0,0,0-1.25.46,1.36,1.36,0,0,0-.55,1.17,1.1,1.1,0,0,0,.5,1,2.26,2.26,0,0,0,1.24.32,2.92,2.92,0,0,0,2-.64,1.9,1.9,0,0,0,.71-1.39Z"/><path class="cls-3" d="M379.49,190.69h1.39v1.43h0a3.09,3.09,0,0,1,2.92-1.64,2.93,2.93,0,0,1,2.39.87,3.71,3.71,0,0,1,.71,2.42v5.92h-1.48V193.6a1.75,1.75,0,0,0-.49-1.32,1.77,1.77,0,0,0-1.33-.49,2.53,2.53,0,0,0-2,.77,3,3,0,0,0-.68,2.05v5.08h-1.47Z"/><path class="cls-3" d="M398,198.92a4.67,4.67,0,0,1-1,3.31,4.12,4.12,0,0,1-3.16,1.09,5.77,5.77,0,0,1-1.7-.24,3.25,3.25,0,0,1-1.38-.86,2.25,2.25,0,0,1-.64-1.54h1.48a1.24,1.24,0,0,0,.76,1.09,3.33,3.33,0,0,0,1.57.37,2.32,2.32,0,0,0,2-.91,4.13,4.13,0,0,0,.66-2.48v-.59h0a2.58,2.58,0,0,1-1.12,1.21,3.48,3.48,0,0,1-1.68.4,3.59,3.59,0,0,1-3-1.29,5,5,0,0,1-1.06-3.25,6.13,6.13,0,0,1,.22-1.65,5.39,5.39,0,0,1,.68-1.51,3.32,3.32,0,0,1,1.3-1.15,4.25,4.25,0,0,1,2-.44,2.82,2.82,0,0,1,2.68,1.5h0v-1.29H398Zm-4.14-.43a2.25,2.25,0,0,0,2-1,4.42,4.42,0,0,0,.66-2.45,4,4,0,0,0-.64-2.28,2.15,2.15,0,0,0-1.92-.94,2.29,2.29,0,0,0-2,.93,3.94,3.94,0,0,0-.66,2.34,5.52,5.52,0,0,0,.22,1.62,2.67,2.67,0,0,0,.81,1.27A2.13,2.13,0,0,0,393.82,198.49Z"/><path class="cls-3" d="M408.9,196.83a3.61,3.61,0,0,1-1.3,2.27,4,4,0,0,1-2.55.78,3.9,3.9,0,0,1-3.15-1.28,5.41,5.41,0,0,1-1.16-3.44,4.83,4.83,0,0,1,1.19-3.35,3.93,3.93,0,0,1,3-1.33,4,4,0,0,1,1.65.34,3.29,3.29,0,0,1,1.18.85,4.64,4.64,0,0,1,.75,1.22,6,6,0,0,1,.41,1.38,7,7,0,0,1,.08,1.36h-6.73a3,3,0,0,0,.68,2.11,2.59,2.59,0,0,0,2.12.85,2.1,2.1,0,0,0,2.33-1.76Zm-1.43-2.5a2.72,2.72,0,0,0-.79-1.81,2.41,2.41,0,0,0-1.8-.73,2.37,2.37,0,0,0-1.81.73,2.79,2.79,0,0,0-.76,1.81Z"/><path class="cls-3" d="M411.79,197.76h1.93v1.93h-1.93Zm1.79-6.67-.44,5.41h-.78l-.44-5.41v-3.82h1.66Z"/></svg>