<svg width="640" height="142" viewBox="0 0 640 142" fill="none" xmlns="http://www.w3.org/2000/svg">
<path d="M117.4 46.8999L77.1001 8.39988C76.6001 7.89988 75.8001 7.69988 75.1001 7.89988L9.8001 23.0999C8.8001 23.2999 8.1001 24.1999 8.1001 25.1999V122.1C8.1001 123.1 8.8001 124 9.8001 124.2L75.1001 139.4C75.3001 139.4 75.4001 139.5 75.6001 139.5C76.1001 139.5 76.7001 139.3 77.1001 138.9L117.5 100.4C117.9 99.9999 118.2 99.3999 118.2 98.7999V48.4999C118.1 47.8999 117.9 47.2999 117.4 46.8999Z" fill="white"/>
<path d="M179.804 36.3752L179.706 37.948L181.212 38.4115C181.837 38.6037 182.301 38.7702 182.644 38.9324C182.971 39.0875 183.065 39.1831 183.065 39.1826C183.065 39.1826 183.065 39.1818 183.063 39.1803C183.191 39.3328 183.399 39.7382 183.4 40.4974C183.4 40.4982 183.4 40.4991 183.4 40.4999L183.3 84.7954V84.7999C183.3 86.3883 183.275 87.755 183.193 88.8934C183.111 90.0291 182.979 90.821 182.814 91.3331C182.408 92.3899 181.68 93.1505 180.608 93.7634L180.569 93.7853L180.532 93.8089C179.109 94.7075 177.266 95.2999 172.3 95.2999C169.415 95.2999 166.391 94.8346 163.112 93.9665C159.841 93.1008 157.368 92.0744 155.61 90.936C154.028 89.8483 153.7 88.9881 153.7 88.2999C153.7 88.1449 153.701 88.0326 153.708 87.9205C153.715 87.8118 153.727 87.7363 153.74 87.685L154.182 85.9196L152.466 85.3139L150.766 84.7139L148.844 84.0356L148.202 85.9701L141.002 107.67L140.415 109.439L142.138 110.149L143.838 110.849L145.071 111.357L146.014 110.414C146.755 109.673 147.474 109.4 148 109.4C149.077 109.4 151.222 109.815 154.635 110.818C159.991 112.405 164.023 113.548 166.571 113.973C169.035 114.383 172.452 114.8 175.8 114.8C181.737 114.8 187.503 113.657 192.072 111.745L192.09 111.737L192.108 111.729C196.705 109.698 200.242 106.861 202.69 102.969C205.108 99.1656 206.1 93.3789 206.1 85.9026C206.1 85.9017 206.1 85.9008 206.1 85.8999L206.2 40.8043V40.7999C206.2 40.3653 206.254 40.079 206.315 39.8905C206.373 39.7112 206.448 39.5863 206.536 39.4803C206.637 39.3595 207.139 38.9959 208.388 38.6115L209.8 38.1771V36.6999V34.8999V32.8999H207.8H181.9H180.021L179.904 34.7752L179.804 36.3752Z" fill="#043D78" stroke="white" stroke-width="4"/>
<path d="M290.149 107.851C289.137 107.617 288.671 107.287 288.429 107.01C288.301 106.851 288.1 106.447 288.1 105.703C288.1 105.702 288.1 105.701 288.1 105.7L288.191 83.307L313.892 83.3998H313.9C321.086 83.3998 326.85 82.6972 331.068 81.185C335.44 79.6531 338.882 77.1066 341.529 73.3599C344.631 69.0359 346.1 63.0978 346.1 57.5998C346.1 53.7455 345.351 50.0649 343.728 46.5882C342.289 43.1755 340.07 40.4014 337.195 38.2962C334.456 36.2179 331.297 34.808 327.849 34.0508C324.319 33.1983 319.732 32.9001 314.135 32.8001L314.118 32.7998H314.1H263.9H261.9V34.7998V36.5998V38.077L263.312 38.5114C263.936 38.7036 264.401 38.8701 264.744 39.0323C265.071 39.1874 265.165 39.283 265.165 39.2825C265.165 39.2825 265.165 39.2817 265.163 39.2802C265.29 39.4327 265.499 39.838 265.5 40.597C265.5 40.598 265.5 40.5989 265.5 40.5998L265.3 105.694V105.7C265.3 106.461 265.091 106.867 264.963 107.019C264.91 107.084 264.748 107.237 264.432 107.412C264.128 107.58 263.728 107.741 263.25 107.851L261.7 108.209V109.8V111.6V113.6H263.7H289.7H291.7V111.6V109.8V108.209L290.149 107.851ZM320.416 63.6587L320.407 63.6633C319.756 64.0355 318.529 64.3367 316.678 64.5083C314.894 64.6738 312.804 64.6998 310.604 64.6998C310.602 64.6998 310.601 64.6998 310.6 64.6998L288.111 64.608L288.188 51.4079L310.692 51.4998H310.7C312.952 51.4998 315.042 51.5258 316.814 51.6912C318.635 51.8611 319.838 52.1585 320.495 52.5294C321.942 53.3925 323.1 55.4382 323.1 57.9998C323.1 60.8753 321.934 62.8007 320.416 63.6587Z" fill="#043D78" stroke="white" stroke-width="4"/>
<path d="M572.05 107.751C571.037 107.517 570.571 107.187 570.329 106.91C570.201 106.751 570.001 106.347 570 105.604C570 105.602 570 105.601 570 105.6L570.092 83.3072L595.793 83.4H595.8C602.986 83.4 608.751 82.6973 612.968 81.1851C617.34 79.6533 620.783 77.1067 623.429 73.3601C626.526 69.0435 627.995 63.1185 628 57.6284C628.104 53.8315 627.342 50.1352 625.717 46.6635C624.171 43.2459 621.853 40.4924 619.11 38.4076C616.368 36.3232 613.203 34.9095 609.749 34.151C606.219 33.2984 601.632 33.0002 596.036 32.9003L596.022 32.9L596.008 32.9L545.808 32.7L543.8 32.692V34.7V36.5V37.9771L545.212 38.4115C546.461 38.796 546.963 39.1595 547.064 39.2803C547.191 39.4329 547.4 39.8382 547.4 40.5972C547.4 40.5981 547.4 40.599 547.4 40.5999L547.2 105.594V105.6C547.2 106.361 546.991 106.767 546.864 106.92C546.81 106.984 546.649 107.137 546.333 107.312C546.028 107.48 545.629 107.641 545.15 107.751L543.6 108.109V109.7V111.5V113.5H545.6H571.6H573.6V111.5V109.7V108.109L572.05 107.751ZM602.316 63.7588L602.308 63.7635C601.657 64.1356 600.43 64.4368 598.578 64.6085C596.794 64.7739 594.704 64.7999 592.504 64.8C592.503 64.8 592.501 64.8 592.5 64.8L570.012 64.7081L570.088 51.5081L592.592 51.5999H592.6C594.853 51.5999 596.943 51.626 598.714 51.7913C600.535 51.9613 601.738 52.2586 602.396 52.6295C603.805 53.4703 604.9 55.4838 604.9 58.0999V58.1294L604.901 58.1587C604.984 60.9917 603.831 62.9027 602.316 63.7588Z" fill="#043D78" stroke="white" stroke-width="4"/>
<path d="M382.25 107.751C381.318 107.536 380.792 107.226 380.497 106.963C380.383 106.782 380.2 106.32 380.2 105.604C380.2 105.602 380.2 105.601 380.2 105.6L380.292 83.4H396.45L410.539 103.815C411.368 105.083 411.973 106.089 412.365 106.838C412.493 107.084 412.59 107.287 412.662 107.451C412.444 107.54 412.099 107.644 411.588 107.724L409.9 107.991V109.7V111.5V113.5H411.9H442.1H444.1V111.5V109.7V107.808L442.211 107.703C440.866 107.628 439.876 107.206 438.892 106.373L438.886 106.368L438.88 106.364C437.922 105.565 436.172 103.401 433.539 99.654C433.538 99.6527 433.537 99.6514 433.536 99.6501L421.735 82.6916C426.983 81.2263 431.303 78.4888 434.44 74.7007C438.152 70.219 440.1 64.3995 440.1 57.7999C440.1 53.9445 439.351 50.1734 437.837 46.7086C436.294 43.0768 433.851 40.064 430.61 37.9364C427.859 36.0689 424.609 34.7834 421.003 34.041C417.393 33.2978 411.212 32.9999 405.434 32.9002L405.421 32.9L405.408 32.9L356.008 32.7L354 32.6918V34.7V36.5V37.9771L355.412 38.4115C356.661 38.796 357.163 39.1595 357.263 39.2803C357.391 39.4329 357.599 39.8382 357.6 40.5972C357.6 40.5981 357.6 40.599 357.6 40.5999L357.4 105.494V105.5C357.4 106.17 357.235 106.636 357.023 106.964C356.945 107.041 356.79 107.17 356.532 107.312C356.228 107.48 355.828 107.641 355.35 107.751L353.8 108.109V109.7V111.5V113.5H355.8H381.8H383.8V111.5V109.7V108.109L382.25 107.751ZM414.782 63.6781L414.782 63.6781L414.771 63.685C414.576 63.8017 414.069 63.993 413.154 64.1792C412.293 64.3545 411.242 64.493 410.097 64.5954C407.808 64.8002 405.286 64.8489 403.452 64.8006L403.43 64.8001L403.408 64.8L380.311 64.7079L380.388 51.5079L403.492 51.5999H403.5C403.756 51.5999 404.021 51.5995 404.293 51.5991C406.125 51.5963 408.278 51.5931 410.271 51.7091C411.413 51.7755 412.454 51.8789 413.315 52.0328C414.22 52.1946 414.747 52.3825 414.982 52.5218C416.392 53.3547 417.491 55.2606 417.5 58.0663C417.405 60.6142 416.204 62.8381 414.782 63.6781Z" fill="#043D78" stroke="white" stroke-width="4"/>
<path d="M525.337 94.4724L525.277 94.5157L525.219 94.5635C525.067 94.6906 524.662 94.8993 523.903 94.8999C523.902 94.8999 523.901 94.8999 523.9 94.8999L477.911 94.7083L477.989 80.7063L506.993 80.7999H507C507.761 80.7999 508.167 81.0091 508.319 81.1363C508.44 81.237 508.804 81.7386 509.188 82.9881L509.623 84.3999H511.1H512.9H514.89L514.9 82.4092L515 61.0092L515.009 58.9999H513H511.2H509.723L509.288 60.4117C508.904 61.6612 508.54 62.1628 508.419 62.2635C508.267 62.3906 507.862 62.5993 507.103 62.5999C507.102 62.5999 507.101 62.5999 507.1 62.5999L478.113 62.5064L478.186 51.5082L523.991 51.6999H524C524.761 51.6999 525.167 51.909 525.319 52.0363C525.419 52.1195 525.786 52.6034 526.051 53.7496L526.409 55.2999H528H529.8H531.791L531.8 53.309L531.9 31.409L531.909 29.3999H529.9H528.1H526.623L526.188 30.8117C525.871 31.8413 525.534 32.4018 525.258 32.7093C525.07 32.8352 524.675 32.9997 524.001 32.9999C524.001 32.9999 524 32.9999 524 32.9999L453.903 32.8999L451.9 32.897V34.8999V36.6999V38.1771L453.312 38.6115C453.998 38.8225 454.462 38.9658 454.824 39.1182C455.063 39.2189 455.157 39.2847 455.179 39.3003C455.307 39.4666 455.499 39.8692 455.5 40.5971C455.5 40.598 455.5 40.599 455.5 40.5999L455.3 105.394V105.4C455.3 105.835 455.245 106.121 455.184 106.309C455.126 106.489 455.052 106.614 454.963 106.72C454.688 107.05 454.008 107.613 453.112 107.888L451.7 108.323V109.8V111.6V113.603L453.703 113.6L524 113.5C524 113.5 524.001 113.5 524.002 113.5C524.761 113.5 525.167 113.709 525.319 113.836C525.44 113.937 525.804 114.439 526.188 115.688L526.623 117.1H528.1H529.9H531.891L531.9 115.109L532 93.3091L532.009 91.2999H530H528.2H526.881L526.361 92.5121C526.051 93.2368 525.845 93.703 525.648 94.0502C525.462 94.377 525.361 94.4552 525.337 94.4724Z" fill="#043D78" stroke="white" stroke-width="4"/>
<path d="M113.8 54.8L94.1001 73.7L113.8 92.6V54.8Z" fill="#043D78"/>
<path d="M12.3999 120.4L73.3999 134.6V90.1999L12.3999 76.8999V120.4Z" fill="#043D78"/>
<path d="M87.8998 73.6999L74.8998 61.2L17.7998 73.6999L74.8998 86.1999L87.8998 73.6999Z" fill="#043D78"/>
<path d="M73.3999 12.7L12.3999 26.9V70.4L73.3999 57.0999V12.7Z" fill="#043D78"/>
<path d="M113.5 49.1L77.6997 15V57.9L90.9997 70.7L113.5 49.1Z" fill="#043D78"/>
<path d="M90.9997 76.7L77.6997 89.4V132.3L113.5 98.2L90.9997 76.7Z" fill="#043D78"/>
</svg>
