<svg width="428" height="107" viewBox="0 0 428 107" fill="none" xmlns="http://www.w3.org/2000/svg">
<path d="M35.0808 46.8591C35.135 46.8298 35.1894 46.801 35.2442 46.7728C35.2888 46.728 35.3334 46.6837 35.3781 46.6399L35.3105 46.5835L35.0808 46.8591ZM35.0808 46.8591C34.7303 47.0485 34.3907 47.2607 34.0644 47.4948L34.2895 47.8086M35.0808 46.8591L34.2895 47.8086M34.2895 47.8086L34.2901 47.8094C34.2686 47.8346 34.2471 47.8599 34.2256 47.8853L34.2895 47.8086ZM77.6561 85.6669L78.9951 86.6765L80.2227 85.5339L91.4827 75.0539L92.9577 73.6811L91.5739 72.2164L89.8639 70.4064L88.5 68.9628L87.0469 70.3165L83.7967 73.3442C79.0465 69.7006 73.2065 67.7224 67.1859 67.7499C66.9952 67.7499 66.7802 67.7471 66.5504 67.7441C66.0234 67.7372 65.4186 67.7294 64.8522 67.7514C64.0476 67.7828 63.2498 67.8352 62.4792 67.909L62.4666 67.9103L62.454 67.9116C62.0432 67.9563 61.6332 68.0066 61.2241 68.0627C61.5252 67.7741 61.8237 67.4828 62.1197 67.1888L62.1228 67.1856C63.879 65.433 65.48 63.5315 66.9076 61.5024C70.4171 56.6605 72.2762 50.8181 72.2101 44.8383C72.2097 43.8373 72.1567 42.5817 72.0555 41.0942C71.9519 39.5714 71.7573 37.8239 71.4861 35.8609C71.0902 31.9952 70.9001 29.139 70.9001 27.2499C70.9001 24.8511 71.6301 23.1816 72.9264 21.9896C74.2825 20.7426 76.4901 19.8054 79.8279 19.4057L82.6555 19.0671L81.3773 16.5223L80.2673 14.3123L79.7137 13.2099H78.4801C73.2704 13.2099 68.8045 14.2625 65.2629 16.5552L64.577 15.4999L63.667 14.0999L62.6935 12.6022L61.0957 13.4011C57.628 15.1349 54.9652 15.884 53.003 15.8997C50.8495 15.7525 48.7295 15.2879 46.7117 14.5208C44.3275 13.6132 41.8199 13.0714 39.2737 12.9137L39.167 12.9071L39.0603 12.9119C35.7776 13.0596 32.6757 14.4553 30.3882 16.8129C29.2152 17.9432 28.2828 19.2991 27.6472 20.7992C27.0063 22.3116 26.6807 23.9388 26.6901 25.5814L26.6904 25.6347L26.6936 25.6879C26.7851 27.2363 27.0908 28.7644 27.6018 30.2288L28.2537 32.0971L30.1288 31.4652L31.9388 30.8552L33.1821 30.4362L33.2929 29.129C33.3185 28.8278 33.2869 28.5248 33.2001 28.2358V28.0883L33.1277 27.8266C33.06 27.5818 33.017 27.3309 32.9995 27.0775C32.9979 26.3267 33.2645 25.5994 33.7522 25.0273L33.7619 25.0159L33.7714 25.0044C33.9638 24.7718 34.2063 24.5858 34.4808 24.4602C34.7543 24.3351 35.0525 24.2733 35.3533 24.2794C36.5552 24.3105 37.741 24.5636 38.8509 25.0261L38.8929 25.0436L39.158 25.2799H39.843C41.4696 25.8954 43.1787 26.2681 44.9154 26.3854L45.0507 26.3945L45.186 26.3853C46.1856 26.3172 47.1824 26.2175 48.1748 26.0865C47.1697 27.5195 46.3169 29.0589 45.6333 30.68C44.3248 33.783 43.6635 37.1205 43.6901 40.488C43.6901 40.7514 43.6902 41.1228 43.7185 41.5917C43.1283 41.5141 42.5327 41.4801 41.9363 41.4902V41.4902L41.9227 41.4905C38.3271 41.5757 35.1842 43.5631 32.4845 46.8507L31.2243 48.3852L32.7497 49.6564L33.9497 50.6564L35.1385 51.6469L36.3958 50.7451C37.3204 50.0819 38.4287 49.7235 39.5665 49.7199L39.5769 49.7198C41.5026 49.7037 42.6775 50.2814 43.4486 51.2142C43.8699 51.7239 44.2358 52.4175 44.5075 53.3366C43.7144 53.1371 42.8953 53.0329 42.0672 53.0299H42.0601C39.4046 53.0299 37.0638 54.4555 35.046 56.6893L33.8874 57.9718L34.9885 59.304L35.9885 60.514L36.9735 61.7059L38.375 61.0527C38.9588 60.7806 39.5952 60.6397 40.2394 60.6399L40.2636 60.6399L40.2878 60.6393C40.7986 60.6272 41.3052 60.7334 41.7681 60.9496C42.2309 61.1659 42.6374 61.4864 42.9558 61.886L42.9652 61.8979L42.9748 61.9096C43.7978 62.9112 44.2886 64.1436 44.3801 65.4357V65.8243C44.2027 69.5102 41.5959 73.5643 35.5514 77.9169L35.5137 77.9441L35.4773 77.9729C34.7446 78.5541 34.08 79.0327 33.482 79.4154L33.4469 79.4378L33.4127 79.4618C32.9264 79.8024 32.4172 80.1091 31.8887 80.3797L29.9376 81.3786L31.1106 83.2302L32.3206 85.1402L33.3238 86.7238L34.9689 85.8251C43.4426 81.196 51.6621 78.9299 59.6501 78.9299C65.6212 78.9299 71.6123 81.1101 77.6561 85.6669ZM59.0901 48.6686C59.0871 53.261 58.1222 57.4139 56.1678 61.1419C57.2258 57.7109 57.7601 54.1892 57.7601 50.5799C57.7601 49.4051 57.7078 47.9914 57.6064 46.3374C57.5025 44.6452 57.2964 42.7463 57.0356 40.5898C56.8416 38.9853 56.717 37.5472 56.601 36.2084C56.5644 35.786 56.5287 35.3736 56.4919 34.9688C56.3508 33.4169 56.3501 32.146 56.3501 31.0699V31.0404L56.3492 31.0109C56.2826 28.7563 56.8429 26.5279 57.9671 24.5732C58.692 23.4533 59.5194 22.406 60.4376 21.4444C58.64 24.3518 57.7801 27.8999 57.7801 31.9799C57.7801 33.9715 57.9899 36.842 58.3918 40.5456L58.3956 40.5808L58.4006 40.6157C58.6669 42.4597 58.85 44.0289 58.9453 45.3445C59.0433 46.6964 59.0901 47.7941 59.0901 48.6686ZM36.4343 48.4164C36.0174 48.6102 35.6173 48.8431 35.2396 49.1131L35.5757 49.3892C35.8637 49.0385 36.1499 48.7146 36.4343 48.4164Z" fill="#940004" stroke="white" stroke-width="4"/>
<path d="M106.282 85.4602L107.53 86.7512L108.948 85.6489L119.428 77.4989L120.931 76.3299L119.837 74.7712L118.637 73.0612L117.384 71.2755L115.713 72.6787L114.031 74.0919L113.14 73.3067V44.001L115.9 41.4756L117.609 39.9118L115.813 38.4491L107.473 31.6591L106.235 30.6515L104.978 31.6346L96.6278 38.1646L94.6984 39.6735L96.5626 41.2622L99.3799 43.6634L99.3799 68.4601L99.3799 68.4638C99.386 71.815 98.4122 72.7985 97.5099 73.1086L96.1599 73.5726V75.0001V76.0001V77.1212L97.1163 77.7062C98.6316 78.6331 100.067 79.6846 101.408 80.8497L101.417 80.8574L101.426 80.8649C102.953 82.1614 104.572 83.6915 106.282 85.4602ZM109.604 11.0714L107.921 11.0089L107.573 12.6572L105.153 24.1272L104.685 26.3465L106.945 26.5333L109.365 26.7333L110.48 26.8254L111.142 25.9237L119.482 14.5637L121.715 11.5216L117.944 11.3814L109.604 11.0714Z" fill="#940004" stroke="white" stroke-width="4"/>
<path d="M137.379 31.5967L136.151 30.6649L134.937 31.615L124.537 39.755L123.117 40.8667L124.077 42.3939L125.277 44.3039L126.216 45.7994L127.816 45.0521C128.074 44.9319 128.322 44.7942 128.561 44.6399H128.795L129.349 44.1862C129.451 44.1018 129.567 44.0355 129.691 43.9895C129.786 44.1655 129.924 44.5441 130 45.2512V72.5961L126.998 75.6734L125.457 77.2531L127.181 78.6317L135.931 85.6317L137.202 86.6486L138.456 85.6104L146.596 78.8704L147.37 78.2288L148.202 78.8928L156.642 85.6328L157.904 86.6408L159.155 85.6188L167.405 78.8788L169.118 77.4796L167.554 75.9157L164.52 72.8815V47.8575L169.586 43.4982L171.38 45.4806V69.7099C171.38 75.1401 172.325 79.514 174.657 82.3423L174.778 82.4888L174.924 82.6099L178.544 85.6099L179.815 86.6637L181.091 85.6144L190.741 77.6744L192.265 76.4199L191.031 74.8793L189.821 73.3693L188.43 71.6337L186.851 73.2003C186.491 73.5574 186.049 73.8158 185.566 73.9545C185.459 73.7015 185.33 73.1683 185.33 72.1999V48.9999V48.9559L185.328 48.912C185.264 47.4604 185.497 46.011 186.013 44.6525C186.526 43.3002 187.309 42.0662 188.313 41.0255L189.408 39.9405L190.86 38.5015L189.389 37.0813L187.929 35.6713L186.534 34.3235L185.144 35.6776L182.711 38.0488L177.103 31.8484L175.791 30.3978L174.312 31.677L163.553 40.9797C162.42 37.4289 159.998 34.3025 156.465 31.6011L155.183 30.6208L153.954 31.667L143.413 40.6401C143.335 40.0954 143.24 39.5529 143.128 39.0135L143.119 38.9706L143.109 38.9281C142.432 36.2619 140.328 33.8346 137.379 31.5967ZM143.7 72.8815V47.7919L148.448 43.8031C148.479 43.8437 148.51 43.8862 148.543 43.9304L148.593 43.9975L148.648 44.0602C149.9 45.4849 150.615 47.302 150.67 49.1974V72.9492L147.956 76.0007L147.421 76.6022L146.734 75.9157L143.7 72.8815Z" fill="#940004" stroke="white" stroke-width="4"/>
<path d="M232.155 16.7917C229.136 22.6736 227.175 29.0471 226.37 35.62C226.24 37.16 226.12 38.7501 226.02 40.4001C225.92 42.0501 225.87 43.7301 225.87 45.4701V48.39C225.869 48.7259 225.903 49.061 225.97 49.39L232.155 16.7917ZM232.155 16.7917C232.605 16.5073 233.041 16.197 233.46 15.8617L232.974 15.2547M256.979 85.6913L258.345 86.6781L259.549 85.4991L269.619 75.6391L270.975 74.3114L269.721 72.8877L268.311 71.2877L266.826 69.6029L265.323 71.2721L264.513 72.1721L264.436 72.2585L264.369 72.3533C264.195 72.5976 263.972 72.8023 263.714 72.9537C263.638 72.9981 263.559 73.0377 263.479 73.0722C263.002 72.6996 262.582 72.2583 262.232 71.7616C261.803 71.0651 261.513 70.5345 261.349 70.2056L261.328 70.164L261.305 70.1234C256.314 61.2022 251.19 54.5878 245.88 50.4921L261.391 39.8597L263.179 38.6338L261.813 36.95L251.453 24.18L250.201 22.6368L248.65 23.8788L235.276 34.5875C236.376 28.3279 238.727 22.3367 242.207 16.9796L243.215 15.4278L241.746 14.3024L240.036 12.9924L238.475 11.7959L237.253 13.3379C231.139 21.0533 228.27 32.8625 228.27 48.37V49.7592C228.259 50.3245 228.296 50.8896 228.38 51.4485V54.2001C228.38 58.5648 227.75 61.5825 226.704 63.5034L226.703 63.5046C225.703 65.3432 223.938 67.1491 221.249 68.8705C222.646 67.506 223.906 66.0052 225.011 64.3887L225.011 64.3883C227.124 61.2959 227.97 56.1177 227.97 49.39V49.1878L227.93 48.9896C227.89 48.7938 227.87 48.5944 227.87 48.3945V48.39V45.4701C227.87 43.7687 227.919 42.1291 228.016 40.521C228.114 38.9035 228.232 37.3421 228.36 35.8261C229.219 28.8547 231.425 22.1166 234.855 15.9868L235.689 14.4971L234.349 13.4398L233.449 12.7298L232.201 11.7457L230.961 12.7384C229.118 14.2124 226.83 15.0168 224.471 15.02C222.654 14.9978 220.848 14.7201 219.108 14.1952L218.861 14.1207L218.603 14.1114C218.476 14.1068 218.351 14.0817 218.232 14.0372L218.133 14.0002L218.031 13.9738C215.615 13.3486 213.144 12.9568 210.653 12.8038L210.597 12.8004L210.542 12.8001C208.391 12.7877 206.264 13.2378 204.303 14.1197C202.351 14.9976 200.609 16.2831 199.196 17.8896C196.395 20.9112 194.545 24.6899 193.877 28.7554L193.609 30.3808L195.153 30.9547L197.063 31.6647L198.91 32.3514L199.624 30.5144C200.436 28.4265 201.469 27.0209 202.639 26.1349C203.79 25.2638 205.212 24.79 207.01 24.79C207.176 24.79 207.582 24.8114 208.263 24.8793L210.985 25.1741C211.924 25.3134 212.746 25.4166 213.454 25.4805C214.118 25.5514 214.786 25.5879 215.454 25.59H215.46C216.64 25.59 217.919 25.4224 219.292 25.0997C216.459 28.7024 214.687 33.0138 214.16 37.5467C212.47 36.8227 210.645 36.4321 208.784 36.4102L208.662 36.4088L208.541 36.4221C206.372 36.6613 204.449 37.4385 202.855 38.7984C201.274 40.147 200.121 41.9783 199.329 44.1704L198.587 46.2242L200.698 46.7834L202.208 47.1834L203.348 47.4853L204.164 46.6343C204.933 45.8321 205.988 45.3667 207.099 45.3394L207.123 45.3389L207.146 45.3377C208.113 45.2912 209.077 45.4765 209.958 45.8782C210.833 46.2777 211.602 46.8798 212.199 47.6346C213.357 49.1609 214.106 50.9498 214.386 52.832C214.333 52.8079 214.279 52.7842 214.225 52.761C212.837 52.1627 211.339 51.8659 209.828 51.8903L209.802 51.8907L209.776 51.8918C207.712 51.9781 205.856 52.6333 204.3 53.9034C202.767 55.1556 201.643 56.9087 200.849 59.0142L200.214 60.6979L201.821 61.5067L203.431 62.3167L204.789 62.9996L205.81 61.875C206.076 61.5827 206.398 61.3474 206.757 61.1831C207.11 61.0216 207.492 60.9321 207.88 60.92C208.27 60.9205 208.655 61.0049 209.01 61.1675C209.37 61.3328 209.69 61.5748 209.947 61.8766L209.986 61.9221L210.027 61.9651C210.641 62.6046 210.983 63.4575 210.98 64.3439V64.35C210.98 66.1392 209.823 68.6559 206.694 71.9791L206.694 71.979L206.686 71.9877C203.753 75.14 200.465 77.9422 196.887 80.3383L195.152 81.5005L196.388 83.1838L197.908 85.2538L198.867 86.5592L200.343 85.893C206.999 82.8895 212.982 81.4416 218.321 81.44C224.753 81.4977 231.088 83.0095 236.853 85.8625L238.211 86.5347L239.226 85.4091L248.36 75.2757C250.907 79.854 253.763 83.3686 256.979 85.6913Z" fill="#940004" stroke="white" stroke-width="4"/>
<path d="M285.272 85.4602L286.523 86.7536L287.941 85.6466L298.381 77.4966L299.885 76.3224L298.783 74.7648L297.573 73.0548L296.318 71.281L294.654 72.6787L292.983 74.0821L292.13 73.3172V44.001L294.89 41.4756L296.599 39.9118L294.803 38.4491L286.463 31.6591L285.225 30.6515L283.968 31.6346L275.618 38.1646L273.689 39.6735L275.553 41.2622L278.37 43.6634L278.37 68.4601L278.37 68.4638C278.376 71.815 277.402 72.7985 276.5 73.1086L275.15 73.5726V75.0001V76.0001V77.1212L276.106 77.7062C277.622 78.6331 279.057 79.6846 280.398 80.8497L280.407 80.8574L280.416 80.8649C281.943 82.1614 283.562 83.6915 285.272 85.4602ZM288.594 11.0714L286.911 11.0089L286.563 12.6572L284.143 24.1272L283.675 26.3465L285.935 26.5333L288.355 26.7333L289.47 26.8254L290.132 25.9237L298.472 14.5637L300.706 11.5216L296.934 11.3814L288.594 11.0714Z" fill="#940004" stroke="white" stroke-width="4"/>
<path d="M316.314 31.6319L315.099 30.6541L313.854 31.594L303.884 39.124L302.299 40.3217L303.486 41.9152L304.686 43.5252L305.932 45.1961L307.55 43.883C307.904 43.5957 308.328 43.4101 308.777 43.3443C308.863 43.5271 308.992 43.9527 309.02 44.7822V46.2636C308.937 46.5463 308.902 46.8428 308.92 47.1401V72.3345L305.643 75.3606L303.972 76.9041L305.716 78.3639L314.286 85.5339L315.549 86.5905L316.829 85.5539L325.469 78.5539L327.163 77.1816L325.65 75.612L322.75 72.603V46.8312L327.55 42.8612L329.62 44.968L329.62 69.3773C329.62 69.3778 329.62 69.3783 329.62 69.3787C329.613 74.5423 330.458 78.7392 332.502 81.602L332.567 81.6924L332.641 81.775C332.816 81.9704 332.987 82.1623 333.154 82.3496C333.707 82.9681 334.214 83.5367 334.67 84.0173C335.226 84.6178 335.834 85.1671 336.488 85.6587L337.728 86.5908L338.939 85.6215L349.499 77.1715L350.898 76.0526L349.939 74.5396L348.729 72.6296L347.571 70.8014L345.84 72.0999L345.04 72.6999L344.24 73.2999V73.3653C344.141 73.408 344.039 73.4435 343.935 73.4715C343.925 73.454 343.914 73.4334 343.902 73.4095C343.709 73.0219 343.51 72.1881 343.51 70.6799V50.6799C343.51 46.4942 344.131 43.848 345.056 42.3833C345.683 41.5711 346.237 40.8992 346.727 40.3456C347.246 39.7597 347.688 39.2901 348.054 38.9242L349.378 37.6005L348.144 36.1923L346.734 34.5823L345.357 33.0092L343.847 34.4555L340.53 37.6317L334.674 31.7757L333.385 30.4868L331.983 31.651L322.336 39.6577C322.057 38.6414 321.655 37.6581 321.134 36.7306L321.073 36.6232L321 36.5239C319.656 34.698 318.08 33.0537 316.314 31.6319ZM343.996 73.5597C343.997 73.561 343.998 73.5617 343.998 73.5618C343.998 73.5619 343.997 73.5613 343.996 73.5597Z" fill="#940004" stroke="white" stroke-width="4"/>
<path d="M371.884 84.9072L378.889 76.615C379.624 78.9658 380.749 81.1871 382.227 83.1823C382.939 84.1646 383.705 85.1042 384.521 85.9968C381.878 85.2075 379.135 84.7627 376.359 84.6808L376.3 86.6799L376.273 84.6801C374.807 84.7001 373.343 84.7759 371.884 84.9072ZM391.8 47.0133C394.128 47.6777 395.904 48.1469 397.109 48.4129L399.54 48.9496V46.4599V35.9299V32.5821L396.592 34.1688L389.649 37.9062L376.567 31.6174L375.552 31.1296L374.608 31.7442C369.874 34.8286 364.49 36.7758 358.877 37.4335L357.11 37.6406V39.4199V73.7099V74.7294L357.935 75.3283L366.844 81.7969L356.679 93.7012L355.534 95.042L356.721 96.346L357.631 97.346L358.429 98.2233L359.582 97.9435C364.203 96.8217 368.926 96.1711 373.679 96.0016C376.998 96.1618 380.259 96.9398 383.294 98.2959L384.09 98.6516L384.893 98.3105C386.171 97.767 387.296 97.2719 388.251 96.8105C389.135 96.383 389.868 96.0549 390.488 95.8088L390.565 95.7783L390.639 95.7416C393.255 94.4442 395.361 93.0565 396.838 91.5405C398.323 90.0163 399.284 88.2379 399.29 86.2303C399.322 84.4228 398.809 82.6477 397.818 81.1362C396.98 79.7736 396.08 78.3192 395.118 76.7732L395.114 76.7657L395.109 76.7582C394.171 75.2809 393.341 73.738 392.625 72.1415L392.621 72.132L392.616 72.1225C391.968 70.7155 391.685 69.1673 391.795 67.6219L391.8 67.551V67.4799V47.0133ZM370.84 42.9926L378 45.6423V68.4593L374.69 72.385L370.84 69.4912V42.9926Z" fill="#940004" stroke="white" stroke-width="4"/>
</svg>
