<svg id="Layer_1" data-name="Layer 1" xmlns="http://www.w3.org/2000/svg" viewBox="0 0 30 30"><defs><style>.cls-1{fill:#fff;}.cls-2{fill:#ea4d62;}</style></defs><title>logoH</title><path class="cls-1" d="M18.25,13.57v11a.37.37,0,0,1-.19.33l-1.71,1V11.71a.37.37,0,0,1,.19-.33l4-2.31a.38.38,0,0,0,0-.65l-6.06-3.7v5.46a.36.36,0,0,1-.19.32l-4.5,2.62v-12L4.25,4.33a.37.37,0,0,0-.19.33V18l1.71-1A.36.36,0,0,0,6,16.7V5.54l1.9-1.1V18.57a.37.37,0,0,1-.19.33l-4,2.31a.38.38,0,0,0,0,.65l6.06,3.69V20.1a.39.39,0,0,1,.19-.33l4.5-2.61V28.48a.38.38,0,0,0,.57.32L20,26a.39.39,0,0,0,.19-.33V12.25l-1.71,1A.39.39,0,0,0,18.25,13.57Zm-1.9-5.46,1,.6-1,.58ZM7.86,22.17l-1-.6,1-.58ZM14.45,15,9.76,17.69V15.32l4.69-2.73Z"/><circle class="cls-2" cx="24.43" cy="23.72" r="2.06"/></svg>