<svg width="1173" height="205" viewBox="0 0 1173 205" fill="none" xmlns="http://www.w3.org/2000/svg">
<path d="M339.895 8.30385L343.775 3.79078L337.957 5.04491L102.466 55.8065L102.465 55.8068C95.2319 57.371 88.3851 60.3714 82.3282 64.6306C76.2813 68.8828 71.144 74.3036 67.2182 80.5741L61.1869 89.4849L58.6855 93.1806L63.1086 92.5883L104.573 87.0359C102.12 90.1298 99.8559 93.3701 97.8503 97.1399L63.1502 103.109C59.6086 103.717 56.2349 105.067 53.2496 107.07C50.2649 109.073 47.7357 111.685 45.8267 114.733C45.8264 114.734 45.826 114.735 45.8257 114.735L31.6589 137.315L29.3876 140.935L33.6223 140.36L88.3023 132.93C88.1769 136.319 88.2705 139.713 88.5824 143.091L34.4078 151.321L34.4074 151.321C30.4123 151.928 26.5954 153.393 23.2168 155.613C19.8383 157.834 16.9777 160.759 14.8301 164.188L6.30498 177.8L4.19257 181.173L8.15967 180.856L97.7692 173.679C105.272 187.038 116.72 195.614 131.531 199.928C160.909 208.486 192.104 191.292 206.757 161.145C215.614 160.101 224.14 157.121 231.73 152.41C239.641 147.501 246.326 140.841 251.273 132.942L259.052 120.531L261.368 116.837L257.057 117.492L215.223 123.846C215.196 121.139 215.031 118.434 214.726 115.744L239.429 112.395L239.431 112.395C247.943 111.233 256.133 108.36 263.51 103.949C270.887 99.5374 277.3 93.6786 282.363 86.7237C282.363 86.7236 282.363 86.7235 282.363 86.7235L297.692 65.6731L300.618 61.6554L295.725 62.5267L200.038 79.5654C197.817 76.8079 195.355 74.2584 192.681 71.9471L274.238 58.4844C274.238 58.4844 274.238 58.4843 274.239 58.4843C291.179 55.6919 306.601 47.022 317.811 33.9905L317.811 33.9901L339.895 8.30385ZM176.675 119.029C177.508 122.995 177.671 127.073 177.157 131.093L177.155 131.093C176.9 133.186 176.476 135.255 175.886 137.279L175.885 137.283C170.898 154.509 155.88 164.473 142.904 160.692C134.132 158.134 127.971 149.872 126.397 139.356C125.762 135.026 125.895 130.617 126.792 126.333L126.795 126.322C127.003 125.296 127.261 124.285 127.568 123.195C132.565 105.972 147.581 96.0119 160.548 99.7921L161.108 97.872L160.548 99.7921C168.727 102.176 174.638 109.513 176.675 119.029Z" fill="url(#paint0_linear_2857_25646)" stroke="white" stroke-width="4"/>
<path d="M416.024 88.5095L381.731 29.2594L381.153 28.2612H380H353H349.508L351.275 31.2732L401.8 117.405V170.061V172.061H403.8H428H430V170.061V117.414L481.516 31.2879L483.327 28.2612H479.8H453H451.863L451.281 29.2387L416.024 88.5095ZM526.021 165.815L526.033 165.822L526.045 165.829C537.693 171.995 550.686 175.061 564.981 175.061C579.153 175.061 592.02 171.924 603.538 165.617C615.185 159.313 624.32 150.524 630.907 139.272C637.639 127.865 640.981 114.842 640.981 100.261C640.981 85.6807 637.64 72.6583 630.908 61.2525C624.323 49.8684 615.188 41.0106 603.537 34.7046C592.019 28.398 579.152 25.2612 564.981 25.2612C550.678 25.2612 537.68 28.3973 526.029 34.7023L526.021 34.707C514.503 41.0144 505.374 49.8701 498.659 61.2445L498.654 61.2522L498.65 61.26C492.054 72.6652 488.781 85.6847 488.781 100.261C488.781 114.838 492.054 127.857 498.65 139.262L498.654 139.27L498.659 139.278C505.374 150.652 514.503 159.508 526.021 165.815ZM605.237 75.2403L605.241 75.2469L605.245 75.2535C609.315 82.3758 611.381 90.6906 611.381 100.261C611.381 109.959 609.251 118.404 605.05 125.659L605.045 125.669C600.956 132.825 595.417 138.36 588.411 142.312C581.395 146.136 573.599 148.061 564.981 148.061C556.366 148.061 548.5 146.137 541.344 142.308C534.342 138.357 528.737 132.821 524.515 125.664C520.446 118.409 518.381 109.961 518.381 100.261C518.381 90.6906 520.448 82.3758 524.518 75.2535L524.521 75.2469L524.525 75.2403C528.618 67.9501 534.157 62.354 541.157 58.4072C548.307 54.4508 556.234 52.4612 564.981 52.4612C573.731 52.4612 581.589 54.4521 588.599 58.4035C595.602 62.3505 601.143 67.9478 605.237 75.2403ZM671.039 28.2612H669.039V30.2612V170.061V172.061H671.039H696.439H698.439V170.061V79.0388L760.178 171.175L760.772 172.061H761.839H785.839H787.839V170.061V30.2612V28.2612H785.839H760.439H758.439V30.2612V121.095L696.699 29.1463L696.105 28.2612H695.039H671.039ZM821.906 28.2612H819.906V30.2612V170.061V172.061H821.906H916.506H918.506V170.061V149.061V147.061H916.506H849.306V112.661H898.706H900.706V110.661V89.6612V87.6612H898.706H849.306V53.2612H916.506H918.506V51.2612V30.2612V28.2612H916.506H821.906ZM946.602 28.2612H944.602V30.2612V170.061V172.061H946.602H1039.2H1041.2V170.061V149.061V147.061H1039.2H974.002V30.2612V28.2612H972.002H946.602ZM1101.22 88.5095L1066.93 29.2594L1066.35 28.2612H1065.2H1038.2H1034.7L1036.47 31.2732L1087 117.405V170.061V172.061H1089H1113.2H1115.2V170.061V117.414L1166.71 31.2879L1168.52 28.2612H1165H1138.2H1137.06L1136.48 29.2387L1101.22 88.5095Z" fill="url(#paint1_linear_2857_25646)" stroke="white" stroke-width="4"/>
<defs>
<linearGradient id="paint0_linear_2857_25646" x1="323.208" y1="7.00001" x2="-16.842" y2="166.508" gradientUnits="userSpaceOnUse">
<stop stop-color="#1FC39C"/>
<stop offset="1" stop-color="#002D85"/>
</linearGradient>
<linearGradient id="paint1_linear_2857_25646" x1="1153.77" y1="103.561" x2="372.407" y2="103.561" gradientUnits="userSpaceOnUse">
<stop stop-color="#1CB59A"/>
<stop offset="1" stop-color="#043F88"/>
</linearGradient>
</defs>
</svg>
